<svg xmlns="http://www.w3.org/2000/svg" width="77" height="77" viewBox="0 0 77 77">
  <g id="avatar-active" transform="translate(-163.5 -2009)">
    <path id="Path_2587" data-name="Path 2587" d="M38.5,0A38.5,38.5,0,1,1,0,38.5,38.5,38.5,0,0,1,38.5,0Z" transform="translate(163.5 2009)" fill="#ffca2c"/>
    <path id="Intersection_1" data-name="Intersection 1" d="M-1397.9,55.9a28.816,28.816,0,0,1,5.052-1.654,16.044,16.044,0,0,1,1.594-.331,4.733,4.733,0,0,0,3.207-2,15.91,15.91,0,0,0,1.169-1.851c.594-1.1.571-1.112-.328-1.945a18.05,18.05,0,0,1-3.921-5.963,6.327,6.327,0,0,0-.7-1.146,5.876,5.876,0,0,1-1.215-3.761c.028-1.072.373-1.513,1.236-1.769-.077-1.4-.191-2.788-.225-4.181-.146-6.089,4.143-8.7,8.051-9.192a10.8,10.8,0,0,1,7.717,1.7,7.866,7.866,0,0,1,3.485,6.64c.041,1.52-.145,3.044-.227,4.567-.008.149,0,.3,0,.444a1.638,1.638,0,0,1,1.278,1.862A5.91,5.91,0,0,1-1373,41.069a5.179,5.179,0,0,0-.628,1.017,16.91,16.91,0,0,1-4.515,6.527.67.67,0,0,0-.139.618,35.619,35.619,0,0,0,2.208,3.4,4.607,4.607,0,0,0,2.68,1.325c2.131.571,4.232,1.257,6.337,1.925A25.833,25.833,0,0,1-1382.493,61,25.832,25.832,0,0,1-1397.9,55.9Z" transform="translate(1584.479 2007)" fill="#b47463" stroke="rgba(0,0,0,0)" stroke-miterlimit="10" stroke-width="1"/>
  </g>
</svg>
