<svg xmlns="http://www.w3.org/2000/svg" width="41.026" height="41.026" viewBox="0 0 41.026 41.026">
  <g id="avatar_blue" transform="translate(-617.745 -1796.869)">
    <path id="Path_2587" data-name="Path 2587" d="M20.513,0A20.513,20.513,0,1,1,0,20.513,20.513,20.513,0,0,1,20.513,0Z" transform="translate(617.745 1796.869)" fill="#415574"/>
    <path id="Intersection_1" data-name="Intersection 1" d="M0,21.083a17.919,17.919,0,0,1,3.142-1.029,9.975,9.975,0,0,1,.991-.206A2.943,2.943,0,0,0,6.127,18.6a9.889,9.889,0,0,0,.727-1.151c.369-.685.355-.692-.2-1.209a11.224,11.224,0,0,1-2.438-3.708,3.934,3.934,0,0,0-.437-.713A3.654,3.654,0,0,1,3.02,9.484c.017-.666.232-.941.768-1.1-.048-.869-.119-1.733-.14-2.6A5.349,5.349,0,0,1,8.655.069a6.715,6.715,0,0,1,4.8,1.058A4.891,4.891,0,0,1,15.62,5.256c.026.945-.09,1.893-.141,2.84,0,.092,0,.186,0,.276a1.018,1.018,0,0,1,.795,1.158,3.675,3.675,0,0,1-.788,2.328,3.222,3.222,0,0,0-.39.632,10.515,10.515,0,0,1-2.807,4.058.417.417,0,0,0-.086.384,22.148,22.148,0,0,0,1.373,2.116,2.865,2.865,0,0,0,1.666.824c1.325.355,2.632.782,3.941,1.2A16.073,16.073,0,0,1,0,21.083Z" transform="translate(628.667 1805.749)" fill="#6383b4" stroke="rgba(0,0,0,0)" stroke-miterlimit="10" stroke-width="1"/>
  </g>
</svg>
