<svg id="avatar-yello" xmlns="http://www.w3.org/2000/svg" width="61.037" height="61.038" viewBox="0 0 61.037 61.038">
  <ellipse id="Ellipse_24" data-name="Ellipse 24" cx="30.518" cy="30.518" rx="30.518" ry="30.518" transform="translate(0 0)" opacity="0.2"/>
  <path id="Path_1014" data-name="Path 1014" d="M173.957,524.859a5.5,5.5,0,0,1-3.166-1.517,40.673,40.673,0,0,1-2.608-3.9.75.75,0,0,1,.164-.708c2.522-1.968,4.012-4.659,5.333-7.479a5.91,5.91,0,0,1,.742-1.165,6.642,6.642,0,0,0,1.5-4.291,1.882,1.882,0,0,0-1.51-2.134c0-.166-.008-.338,0-.508.1-1.745.316-3.492.268-5.234a8.945,8.945,0,0,0-4.118-7.61,13.076,13.076,0,0,0-9.117-1.948c-4.617.562-9.683,3.555-9.51,10.533.04,1.6.174,3.19.265,4.791-1.019.293-1.427.8-1.46,2.028a6.6,6.6,0,0,0,1.435,4.309,7.188,7.188,0,0,1,.83,1.314,20.642,20.642,0,0,0,4.632,6.833c1.062.954,1.088.965.387,2.229a18.091,18.091,0,0,1-1.382,2.121,5.615,5.615,0,0,1-3.788,2.294c-.633.09-1.262.227-1.884.379a35.4,35.4,0,0,0-5.825,1.839,30.511,30.511,0,0,0,36.279.027C178.943,526.3,176.468,525.512,173.957,524.859Z" transform="translate(-132.785 -471.987)" fill="#ffe346"/>
</svg>
