<svg xmlns="http://www.w3.org/2000/svg" width="19.008" height="19" viewBox="0 0 19.008 19">
  <g id="Group_1331" data-name="Group 1331" transform="translate(-900.193 -141.347)">
    <path id="Path_516" data-name="Path 516" d="M932.458,332.505h4.519l-2.327,4.129c.494-.087.938-.163,1.381-.245.394-.073.393-.075.6.269s.407.661.626,1.016c.055-.092.1-.161.14-.232q1.346-2.383,2.688-4.768a.343.343,0,0,1,.292-.18c.478-.081.714.129.937.545.8,1.483,1.638,2.941,2.463,4.408.041.073.084.146.146.251.247-.406.489-.783.708-1.173a.287.287,0,0,1,.367-.168c.491.1.987.17,1.537.262l-2.318-4.1h4.517v10.84H932.458Z" transform="translate(-30.894 -183.01)" fill="#fd0"/>
    <path id="Path_517" data-name="Path 517" d="M900.193,148.79v-3.354h3.625a2.752,2.752,0,0,1-.171-2.079,2.724,2.724,0,0,1,2.1-1.892,2.933,2.933,0,0,1,3.245,1.2c.255.319.469.671.717,1.03.036-.059.075-.12.111-.183A6.078,6.078,0,0,1,911.043,142a3.019,3.019,0,0,1,4.752,1.5,2.866,2.866,0,0,1-.207,1.923H919.2v3.369Zm8.763-3.377c-.071-.178-.124-.329-.19-.476a5.066,5.066,0,0,0-1.224-1.838,1.45,1.45,0,0,0-1.274-.368,1.517,1.517,0,0,0-1.309,1.163.853.853,0,0,0,.429,1.03,2.96,2.96,0,0,0,.6.269A10.057,10.057,0,0,0,908.956,145.413Zm1.485,0c.5,0,.967.008,1.431,0a7.612,7.612,0,0,0,.845-.067,3.257,3.257,0,0,0,1.3-.427.868.868,0,0,0,.431-1.011,1.608,1.608,0,0,0-2.415-.935A5.506,5.506,0,0,0,910.442,145.413Z" fill="#fd0"/>
  </g>
</svg>
