<svg id="logo_ka" xmlns="http://www.w3.org/2000/svg" xmlns:xlink="http://www.w3.org/1999/xlink" width="394.803" height="195.38" viewBox="0 0 394.803 195.38">
  <defs>
    <clipPath id="clip-path">
      <rect id="Rectangle_1366" data-name="Rectangle 1366" width="394.803" height="195.38" fill="none"/>
    </clipPath>
  </defs>
  <g id="Group_1755" data-name="Group 1755" clip-path="url(#clip-path)">
    <path id="Path_2631" data-name="Path 2631" d="M52.284,192.32q-2.471,12.168-14.99,12.168H0l2.645-12.7H39.763l11.992-56.608H34.825l2.646-12.7h7.759l12.7-16.4,3.351-15.871H38.528l2.821-12.7H76.8l-6.525,30.155L58.808,122.485H72.74l-2.645,12.7H64.452Z" transform="translate(0 -39.934)" fill="#3bffac"/>
    <path id="Path_2632" data-name="Path 2632" d="M216.49,204.488H195.328l24.16-114.274H204.675L186.51,175.92h-12.7l18.164-85.706H177.164L153,204.488H131.842l2.645-12.7h8.465L164.467,90.038q2.644-12.52,14.637-12.521h16.224q1.76,0,4.409,2.644a14.2,14.2,0,0,1,3.791-2.027,11.4,11.4,0,0,1,3.615-.617h16.047q11.64,0,8.994,12.521L210.67,191.791h8.465Z" transform="translate(-67.921 -39.934)" fill="#3bffac"/>
    <path id="Path_2633" data-name="Path 2633" d="M592.514,103.617l-11.286,18.869h14.285l-2.646,12.7h-5.643l-11.992,56.783q-2.644,12.523-14.461,12.521H519.858q-11.816,0-9.17-12.521L532.2,90.214H526.56l2.821-12.7h18.341L523.385,191.791h39.15l11.992-56.607H559.714l-6.525,30.331h-12.7l18.87-88h38.8Zm-12.52-.353,2.644-13.05h-13.4l-6.878,32.272H568Z" transform="translate(-262.842 -39.934)" fill="#3bffac"/>
    <path id="Path_2634" data-name="Path 2634" d="M710.825,90.214l-24.16,114.274H667.972l2.636-12.7h5.975L698.2,89.685q2.458-12.167,15.114-12.168h15.321q12.341,0,9.876,12.168L716.831,191.791h5.809l-2.645,12.7H701.654l24.16-114.274Z" transform="translate(-344.119 -39.934)" fill="#3bffac"/>
    <path id="Path_2635" data-name="Path 2635" d="M428.169,17.757Q424.855,13.8,416.861,13.8h-4.3L415.493,0H403.022L400.1,13.8h-8.3L394.723,0H382.085l-2.922,13.8H358.368L334.4,126.063l40.85.006L360.372,195.38h4.047l24.552-64.407,6.7-17.571v-.078H350.021L368.7,26.368h7.93l-3.916,18.5h12.654l3.911-18.5h8.3l-3.911,18.5h12.425l3.927-18.5h8.4l-14.442,67.59h20.237l2.473-12.784h-7.845l11.011-50.215q1.912-8.923-1.684-13.2" transform="translate(-172.271)" fill="#ffd939"/>
    <path id="Path_2636" data-name="Path 2636" d="M74.848,77.517h-15.7a12.521,12.521,0,0,0-12.141,9.459l-4.4,17.45h14.06l3.811-14.078" transform="translate(-21.95 -39.934)" fill="#3bffac"/>
  </g>
</svg>
